<svg width="32" height="112" viewBox="0 0 32 112" fill="none" xmlns="http://www.w3.org/2000/svg">
<g clip-path="url(#clip0_166_67)">
<path d="M30.5459 53.7374L30.5459 36.202H26.7984L26.7984 53.7374H30.5459Z" fill="#222222"/>
<path d="M17.4297 53.1717L17.4297 36.202H13.6794L13.6794 53.1717H17.4297Z" fill="#222222"/>
<path d="M4.31348 53.7374L4.31348 36.202H0.566002L0.566002 53.7374H4.31348Z" fill="#222222"/>
<path d="M30.561 0.233093V4.70753L5.8688 14.8164V15.1893L30.561 25.2982L30.561 29.7726L0.565771 29.7726L0.565771 26.2511L23.228 26.2511V25.9611L0.565771 16.6393V13.3249L23.228 4.00322V3.75464L0.565771 3.75464V0.233093L30.561 0.233093ZM30.561 81.5184H0.565771V77.9554L23.9323 61.7154V61.4252L0.565771 61.4252V57.6964L30.561 57.6964V61.3007L7.15312 77.5413V77.8315H30.561V81.5184ZM30.561 107.785V111.514H10.7161C4.54302 111.514 0.0479133 106.894 0.0272103 99.8304C0.0479133 92.7462 4.54302 88.1474 10.7161 88.1474H30.561V91.8762H11.0061C6.65597 91.8552 3.528 94.8798 3.5073 99.8304C3.528 104.782 6.65597 107.764 11.0061 107.785H30.561Z" fill="#222222"/>
</g>
<defs>
<clipPath id="clip0_166_67">
<rect width="112" height="31.1111" fill="white" transform="matrix(0 1 -1 0 31.1113 0)"/>
</clipPath>
</defs>
</svg>
